HIERARCHY
ROOT Hips
{
	OFFSET 0.000000 0.000000 0.000000
	CHANNELS 6 Xposition Yposition Zposition Xrotation Yrotation Zrotation
	JOINT LeftUpLeg_virtual
	{
		OFFSET 0.000000 0.000000 0.000000
		CHANNELS 3 Xrotation Yrotation Zrotation
		JOINT LeftUpLeg
		{
			OFFSET 13.026900 -6.336304 -1.092800
			CHANNELS 3 Xrotation Yrotation Zrotation
			JOINT LeftLeg
			{
				OFFSET 0.524474 -46.096886 9.782700
				CHANNELS 3 Xrotation Yrotation Zrotation
				JOINT LeftFoot
				{
					OFFSET -0.524474 -53.427422 -12.948200
					CHANNELS 3 Xrotation Yrotation Zrotation
					JOINT LeftToeBase
					{
						OFFSET 0.192200 -14.009700 16.364100
						CHANNELS 3 Xrotation Yrotation Zrotation
						JOINT LeftToe_End
						{
							OFFSET -1.784700 -0.561700 9.474800
							CHANNELS 3 Xrotation Yrotation Zrotation
							End Site
							{
								OFFSET 0 0 0
							}
						}
					}
				}
			}
		}
	}
	JOINT RightUpLeg_virtual
	{
		OFFSET 0.000000 0.000000 0.000000
		CHANNELS 3 Xrotation Yrotation Zrotation
		JOINT RightUpLeg
		{
			OFFSET -12.883000 -6.336304 -1.092800
			CHANNELS 3 Xrotation Yrotation Zrotation
			JOINT RightLeg
			{
				OFFSET -0.524587 -46.096825 9.782800
				CHANNELS 3 Xrotation Yrotation Zrotation
				JOINT RightFoot
				{
					OFFSET 0.524587 -53.427383 -12.948300
					CHANNELS 3 Xrotation Yrotation Zrotation
					JOINT RightToeBase
					{
						OFFSET -0.192200 -14.009700 16.364100
						CHANNELS 3 Xrotation Yrotation Zrotation
						JOINT RightToe_End
						{
							OFFSET 1.784700 -0.561700 9.474800
							CHANNELS 3 Xrotation Yrotation Zrotation
							End Site
							{
								OFFSET 0 0 0
							}
						}
					}
				}
			}
		}
	}
	JOINT Spine_virtual
	{
		OFFSET 0.000000 0.000000 0.000000
		CHANNELS 3 Xrotation Yrotation Zrotation
		JOINT Spine
		{
			OFFSET 0.072000 7.257294 -0.789700
			CHANNELS 3 Xrotation Yrotation Zrotation
			JOINT Spine1
			{
				OFFSET 0.000000 12.508769 -0.658067
				CHANNELS 3 Xrotation Yrotation Zrotation
				JOINT Spine1_split
				{
					OFFSET 0.000000 12.508769 -0.658067
					CHANNELS 3 Xrotation Yrotation Zrotation
					JOINT Spine2
					{
						OFFSET 0.000000 12.508769 -0.658067
						CHANNELS 3 Xrotation Yrotation Zrotation
						JOINT Neck_virtual
						{
							OFFSET 0.000000 0.000000 0.000000
							CHANNELS 3 Xrotation Yrotation Zrotation
							JOINT Neck
							{
								OFFSET 0.000000 14.033295 7.520400
								CHANNELS 3 Xrotation Yrotation Zrotation
								JOINT Head
								{
									OFFSET 0.000000 8.198502 5.703100
									CHANNELS 3 Xrotation Yrotation Zrotation
									JOINT HeadTop_End
									{
										OFFSET 0.000000 17.760803 13.332701
										CHANNELS 3 Xrotation Yrotation Zrotation
										End Site
										{
											OFFSET 0 0 0
										}
									}
								}
							}
						}
						JOINT LeftShoulder_virtual
						{
							OFFSET 0.000000 0.000000 0.000000
							CHANNELS 3 Xrotation Yrotation Zrotation
							JOINT LeftShoulder
							{
								OFFSET 6.292450 5.785301 -0.669000
								CHANNELS 3 Xrotation Yrotation Zrotation
								JOINT LeftShoulder_split
								{
									OFFSET 6.292450 5.785301 -0.669000
									CHANNELS 3 Xrotation Yrotation Zrotation
									JOINT LeftArm
									{
										OFFSET 13.907140 -6.093903 1.965100
										CHANNELS 3 Xrotation Yrotation Zrotation
										JOINT LeftForeArm
										{
											OFFSET 34.140198 0.000000 0.000000
											CHANNELS 3 Xrotation Yrotation Zrotation
											JOINT LeftHand
											{
												OFFSET 40.960209 0.000000 0.000000
												CHANNELS 3 Xrotation Yrotation Zrotation
												End Site
												{
													OFFSET 0 0 0
												}
											}
										}
									}
								}
							}
						}
						JOINT RightShoulder_virtual
						{
							OFFSET 0.000000 0.000000 0.000000
							CHANNELS 3 Xrotation Yrotation Zrotation
							JOINT RightShoulder
							{
								OFFSET -6.292450 5.785301 -0.669000
								CHANNELS 3 Xrotation Yrotation Zrotation
								JOINT RightShoulder_split
								{
									OFFSET -6.292450 5.785301 -0.669000
									CHANNELS 3 Xrotation Yrotation Zrotation
									JOINT RightArm
									{
										OFFSET -13.907140 -6.093903 1.965100
										CHANNELS 3 Xrotation Yrotation Zrotation
										JOINT RightForeArm
										{
											OFFSET -34.140198 0.000000 0.000000
											CHANNELS 3 Xrotation Yrotation Zrotation
											JOINT RightHand
											{
												OFFSET -40.960209 0.000000 0.000000
												CHANNELS 3 Xrotation Yrotation Zrotation
												End Site
												{
													OFFSET 0 0 0
												}
											}
										}
									}
								}
							}
						}
					}
				}
			}
		}
	}
}
MOTION
Frames: 6
Frame Time: 0.03333333
-2.996802 116.045258 -3.196854 0.000000 0.000000 0.000000 1.889417 6.131470 6.660023 -10.424285 5.707316 2.063472 14.163885 5.278815 0.577492 -4.556115 1.373135 -6.619677 -0.151742 0.111494 -1.151709 0.000000 0.000000 0.000000 2.258788 6.142117 6.735548 -14.548317 -10.448010 -13.061985 22.160906 -0.825256 -1.948142 -8.869352 -7.478652 5.795538 -4.038224 -0.157811 -0.434452 0.000000 0.000000 0.000000 2.521955 5.808463 6.263621 8.101641 -0.999024 6.785747 2.324122 -0.152251 1.570087 0.818185 -0.517673 0.413426 0.000000 0.000000 0.000000 1.475029 -0.139082 1.266961 0.705376 0.541682 2.452433 -4.838992 -13.535589 -1.079113 0.000000 0.000000 0.000000 2.016660 -0.248227 1.366273 1.085001 -5.181010 -12.178202 0.281754 -0.048048 -1.405735 6.586192 -7.467898 -41.008688 0.092498 -68.798132 0.062855 0.000000 0.000000 0.000000 2.105668 -0.057753 1.268151 1.293304 16.327359 13.517996 -1.264250 1.151179 0.413792 -27.462760 14.080072 60.894647 -140.258180 88.295782 139.753566 0.000000 0.000000 0.000000 
-2.992901 116.045853 -3.071064 0.000000 0.000000 0.000000 1.886815 5.814825 6.691789 -10.231506 5.727090 2.116307 14.148190 5.407867 0.613255 -4.678258 1.306345 -6.701722 -0.120065 0.113321 -1.148702 0.000000 0.000000 0.000000 2.256131 5.821874 6.768479 -14.233781 -9.807558 -12.987572 22.043968 -1.211977 -1.926928 -9.009529 -7.544361 5.834815 -3.996961 -0.165788 -0.449566 0.000000 0.000000 0.000000 2.507511 5.694829 6.286142 8.032308 -1.305429 6.827009 2.294050 -0.186461 1.565542 0.828888 -0.605134 0.374362 0.000000 0.000000 0.000000 1.479348 -0.171245 1.246491 0.701257 0.731771 2.299794 -5.548006 -13.258288 -1.311760 0.000000 0.000000 0.000000 1.985570 -0.275667 1.380804 1.024965 -5.307309 -12.320285 0.391935 0.140424 -1.482404 6.882870 -7.754811 -40.955102 0.127014 -68.973996 0.037945 0.000000 0.000000 0.000000 2.074125 -0.126355 1.269130 1.378744 16.812096 13.692403 -1.416382 1.319905 0.458164 -21.939976 16.664681 60.574332 -170.668040 84.032705 170.122008 0.000000 0.000000 0.000000 
-2.937060 116.055328 -2.978260 0.000000 0.000000 0.000000 1.842548 5.490588 6.704309 -10.029810 5.780569 2.162713 14.149564 5.586207 0.625090 -4.806547 1.221331 -6.761190 -0.066949 0.113997 -1.139408 0.000000 0.000000 0.000000 2.212359 5.491305 6.779715 -13.879340 -9.178778 -12.941087 21.899552 -1.590873 -1.900569 -9.079057 -7.609926 5.899446 -3.933647 -0.175165 -0.462342 0.000000 0.000000 0.000000 2.484045 5.524884 6.285646 7.971334 -1.643411 6.839185 2.255056 -0.264848 1.556610 0.850630 -0.651110 0.331844 0.000000 0.000000 0.000000 1.471116 -0.239447 1.234579 0.714687 0.927788 2.116706 -6.248726 -12.897785 -1.608073 0.000000 0.000000 0.000000 1.951536 -0.336990 1.396408 0.966068 -5.459913 -12.393829 0.484097 0.362120 -1.495185 7.276502 -8.187777 -40.863277 0.165353 -69.064892 0.000265 0.000000 0.000000 0.000000 2.037029 -0.228870 1.276087 1.490543 17.368751 13.687066 -1.524037 1.416875 0.570389 -16.821516 20.274674 59.667843 -174.807408 80.674206 174.232716 0.000000 0.000000 0.000000 
-2.829470 116.080688 -2.904907 0.000000 0.000000 0.000000 1.747928 5.145230 6.696057 -9.800788 5.854861 2.198701 14.160605 5.820419 0.617838 -4.951243 1.142033 -6.792418 0.007421 0.115172 -1.128234 0.000000 0.000000 0.000000 2.116027 5.138691 6.769036 -13.503837 -8.584259 -12.919014 21.747580 -1.932834 -1.870760 -9.053133 -7.665193 6.016815 -3.896536 -0.185647 -0.473648 0.000000 0.000000 0.000000 2.432504 5.262495 6.260565 7.912248 -1.986644 6.797075 2.209473 -0.369473 1.537661 0.863826 -0.669204 0.309313 0.000000 0.000000 0.000000 1.454863 -0.327354 1.220699 0.745105 1.111886 1.903848 -6.882302 -12.493016 -1.942941 0.000000 0.000000 0.000000 1.918736 -0.418588 1.407366 0.910676 -5.609667 -12.374206 0.553109 0.624549 -1.464322 7.710788 -8.746213 -40.758153 0.242326 -69.116897 -0.012686 0.000000 0.000000 0.000000 1.995646 -0.349179 1.279612 1.619563 18.055129 13.533646 -1.656449 1.529339 0.635523 -12.118538 24.844608 57.898018 -176.129692 78.598217 175.542706 0.000000 0.000000 0.000000 
-2.680562 116.125763 -2.837006 0.000000 0.000000 0.000000 1.602254 4.766941 6.660483 -9.520097 5.938080 2.234748 14.167452 6.115299 0.595231 -5.118595 1.089388 -6.788225 0.091488 0.117347 -1.116919 0.000000 0.000000 0.000000 1.967255 4.746827 6.730678 -13.119411 -8.026711 -12.900986 21.578873 -2.217589 -1.843416 -8.943785 -7.703709 6.176081 -3.891730 -0.197759 -0.481108 0.000000 0.000000 0.000000 2.331106 4.899420 6.209945 7.847256 -2.298469 6.683852 2.168464 -0.478325 1.500105 0.815751 -0.669637 0.314419 0.000000 0.000000 0.000000 1.432250 -0.408229 1.194023 0.805277 1.276564 1.667811 -7.410623 -12.126133 -2.285007 0.000000 0.000000 0.000000 1.894925 -0.499782 1.407498 0.856072 -5.746726 -12.248197 0.617629 0.880342 -1.394518 8.085338 -9.373014 -40.669532 0.345451 -69.184892 -0.000766 0.000000 0.000000 0.000000 1.934353 -0.464843 1.270819 1.755507 18.901621 13.245835 -1.682464 1.647558 0.565177 -7.771171 30.187746 55.007239 -176.259493 77.711966 175.661305 0.000000 0.000000 0.000000 
-2.499762 116.197983 -2.770191 0.000000 0.000000 0.000000 1.408724 4.336213 6.586280 -9.167938 6.029993 2.282396 14.160352 6.468413 0.560352 -5.316207 1.072183 -6.743782 0.175815 0.121004 -1.105613 0.000000 0.000000 0.000000 1.768486 4.307414 6.655191 -12.725794 -7.499347 -12.863085 21.382220 -2.437678 -1.825167 -8.787284 -7.724254 6.338117 -3.906425 -0.211814 -0.480583 0.000000 0.000000 0.000000 2.173443 4.453615 6.122727 7.769024 -2.541710 6.492845 2.132761 -0.565566 1.436395 0.715847 -0.751032 0.353956 0.000000 0.000000 0.000000 1.405100 -0.458896 1.145036 0.894423 1.406632 1.427386 -7.826990 -11.875893 -2.612144 0.000000 0.000000 0.000000 1.872189 -0.558278 1.390434 0.799665 -5.877335 -12.026177 0.704041 1.142884 -1.307593 8.288296 -10.031135 -40.641149 0.465544 -69.311148 0.038642 0.000000 0.000000 0.000000 1.847753 -0.560674 1.238800 1.895772 19.917492 12.867348 -1.660578 1.786729 0.444448 -3.581785 35.944410 50.849717 -175.647549 77.833926 175.032887 0.000000 0.000000 0.000000 
